<?xml version="1.0" encoding="UTF-8" standalone="no"?>
<!-- Created with Inkscape (http://www.inkscape.org/) -->

<svg
   width="210mm"
   height="297mm"
   viewBox="0 0 210 297"
   version="1.1"
   id="svg1"
   xml:space="preserve"
   inkscape:version="1.3.2 (091e20e, 2023-11-25, custom)"
   sodipodi:docname="Logo Verde 1500x1500.svg"
   xmlns:inkscape="http://www.inkscape.org/namespaces/inkscape"
   xmlns:sodipodi="http://sodipodi.sourceforge.net/DTD/sodipodi-0.dtd"
   xmlns="http://www.w3.org/2000/svg"
   xmlns:svg="http://www.w3.org/2000/svg"><sodipodi:namedview
     id="namedview1"
     pagecolor="#ffffff"
     bordercolor="#000000"
     borderopacity="0.25"
     inkscape:showpageshadow="2"
     inkscape:pageopacity="0.0"
     inkscape:pagecheckerboard="0"
     inkscape:deskcolor="#d1d1d1"
     inkscape:document-units="mm"
     inkscape:zoom="0.22672208"
     inkscape:cx="1179.8586"
     inkscape:cy="672.62967"
     inkscape:window-width="1366"
     inkscape:window-height="705"
     inkscape:window-x="-8"
     inkscape:window-y="-8"
     inkscape:window-maximized="1"
     inkscape:current-layer="layer1" /><defs
     id="defs1" /><g
     inkscape:label="Capa 1"
     inkscape:groupmode="layer"
     id="layer1"><g
       id="g6"
       transform="translate(367.60315,25.67387)"><path
         style="fill:#9bd7b1"
         d="m 201.52254,345.81546 c -0.14718,-0.47429 -0.34804,-1.51718 -0.44636,-2.31754 -0.6908,-5.62335 -2.82718,-14.9412 -4.76207,-20.7698 -3.17803,-9.5734 -7.93339,-19.13625 -13.94647,-28.04583 -11.27793,-16.71051 -27.57167,-32.22145 -50.20556,-47.79354 -14.38692,-9.89818 -26.7709,-17.2539 -58.076043,-34.49547 C 51.763982,200.09923 40.86081,193.72521 31.091246,187.25841 15.914904,177.21269 5.8719662,168.41696 -0.98395606,159.16655 -5.9850459,152.41878 -9.0105865,145.81815 -10.490716,138.42623 c -0.786433,-3.92752 -0.847681,-11.88946 -0.12197,-15.8554 1.1816879,-6.4578 2.7852464,-11.35052 5.9183355,-18.05781 1.5503924,-3.31906 1.9795478,-3.41235 2.4344091,-0.52917 1.54309758,9.78108 5.8301049,19.53834 12.4095734,28.24427 8.336297,11.03057 21.852156,22.0861 40.653072,33.25286 10.900581,6.47438 18.507777,10.45576 47.492708,24.85625 27.657348,13.74091 34.933978,17.54435 45.640628,23.85604 25.34644,14.94201 42.1011,29.34689 52.68884,45.29944 7.16339,10.79309 11.42927,22.29477 13.10057,35.32187 0.53453,4.16639 0.45339,17.43119 -0.13271,21.69584 -1.25202,9.11014 -2.98365,16.49081 -6.15906,26.25164 -0.64947,1.99637 -1.28495,3.69411 -1.41219,3.77275 -0.12724,0.0786 -0.35177,-0.24507 -0.49895,-0.71935 z m 17.04824,-39.05864 c -0.0777,-0.12573 -0.44978,-2.29862 -0.82682,-4.82865 -3.28465,-22.04032 -10.43147,-38.78059 -23.62133,-55.32915 -3.35458,-4.2088 -12.8846,-13.82613 -17.49518,-17.65546 -12.4935,-10.37654 -27.2938,-19.79126 -49.0913,-31.2278 C 113.16682,190.17657 104.99477,186.08765 100.54437,184.2103 86.552761,178.3081 68.398474,169.31124 57.152704,162.70635 23.345307,142.85053 5.4600636,122.67713 2.6484737,101.22911 1.5744127,93.035713 2.8988346,84.371319 6.5447524,75.739583 8.8708236,70.232593 9.5006763,69.550212 9.7806165,72.233854 11.507628,88.789821 21.253179,102.68216 40.700166,116.30986 c 12.153252,8.51653 27.521834,16.59623 57.06608,30.00124 37.952264,17.21996 53.021314,24.75958 67.451274,33.74845 22.93611,14.28761 37.74333,28.0887 47.42313,44.20078 6.40464,10.66057 10.08139,21.31941 11.78827,34.17404 0.6513,4.90498 0.64223,18.33897 -0.0159,23.54792 -0.81701,6.46639 -2.55103,15.38731 -4.02433,20.70365 -0.21172,0.76398 -0.56686,2.0439 -0.78921,2.84427 -0.38037,1.3692 -0.7029,1.75377 -1.0287,1.22661 z M 52.776052,115.55308 C 42.497103,109.68786 28.2234,99.387514 28.499469,98.034349 c 0.04495,-0.220344 2.329288,-1.330409 5.369902,-2.609488 2.910416,-1.22431 6.601354,-2.777229 8.202083,-3.450932 1.600729,-0.673703 4.815417,-2.053366 7.14375,-3.065918 C 99.224206,67.159955 134.33256,47.275133 158.35583,27.092477 162.83766,23.327161 172.2184,13.88238 175.34172,9.990625 c 7.04769,-8.7816403 11.2019,-17.1015519 13.02788,-26.091814 0.37284,-1.835706 0.6779,-3.584851 0.6779,-3.886989 0,-0.774179 0.54228,-1.01784 0.96838,-0.435115 0.19742,0.269986 0.93948,1.984816 1.64903,3.810734 4.96395,12.7740842 5.47022,24.1900511 1.59044,35.863601 -7.22549,21.740177 -30.95374,43.400062 -73.54863,67.137463 -11.10842,6.190531 -24.252709,12.904874 -37.676377,19.245785 -10.889286,5.14374 -25.345851,11.64488 -25.894705,11.64488 -0.18402,0 -1.695833,-0.77674 -3.359586,-1.72609 z M 22.537407,90.490104 C 19.609694,86.063492 17.306884,80.548429 16.284186,75.514096 15.697235,72.624775 15.179764,65.767502 15.501147,65.137646 15.617745,64.909132 20.03642,62.778351 25.320424,60.402576 76.465499,37.406918 107.32671,21.601832 131.86774,5.8360282 c 24.3698,-15.6557916 38.79604,-29.1587502 43.92975,-41.1182222 1.67681,-3.906289 2.00689,-5.539729 1.98575,-9.82666 -0.0102,-2.073672 0.0858,-3.770313 0.21343,-3.770313 0.64691,0 3.64474,8.551931 4.59092,13.096564 0.82653,3.969904 1.11783,10.164809 0.66192,14.076373 -2.62606,22.53063514 -22.86596,44.130095 -64.14093,68.449427 -17.5281,10.327604 -43.159369,23.238965 -71.084001,35.807476 -11.815611,5.318051 -22.978387,10.122244 -23.519529,10.122244 -0.363216,0 -0.966849,-0.669643 -1.967643,-2.182813 z"
         id="path12" /><path
         style="fill:#96ad9e"
         d="m 201.63212,345.01927 c -0.069,-0.32742 -0.25882,-1.48828 -0.42183,-2.57969 -2.62805,-17.59537 -8.47591,-32.74496 -18.33257,-47.49271 C 172.00981,278.68605 155.85693,263.06563 134.54333,248.20574 119.1761,237.49167 107.92756,230.7732 73.689162,211.85902 51.14799,199.4067 41.487967,193.76949 32.008818,187.53602 21.090547,180.35617 13.790921,174.61149 7.1312584,167.95779 -1.7285328,159.10593 -6.6955055,151.29257 -9.3589025,142.01771 c -1.9709205,-6.86342 -2.0195305,-15.78601 -0.1282872,-23.54792 1.300398,-5.337 5.5920003,-16.00729 6.4381491,-16.00729 0.1373027,0 0.3216422,0.44648 0.4096433,0.99219 1.0325211,6.40276 3.0112093,12.75344 5.5268205,17.73856 7.8394528,15.53524 22.2120198,29.10211 46.1144438,43.52937 11.180036,6.74815 19.213181,10.97882 46.985997,24.74522 28.873936,14.31222 38.511386,19.37505 49.932546,26.23105 24.01679,14.417 39.57648,27.88212 49.93619,43.214 7.52691,11.13947 11.48856,21.46173 13.47433,35.10794 0.66407,4.56348 0.66204,17.37315 -0.004,22.225 -1.28195,9.34526 -2.64465,15.2643 -5.89336,25.59844 -0.6519,2.07367 -1.29579,3.77031 -1.43087,3.77031 -0.13508,0 -0.30206,-0.26789 -0.37106,-0.59531 z m 16.93827,-39.55521 c -0.0839,-0.40018 -0.33941,-2.09682 -0.56788,-3.77031 -2.46689,-18.06935 -9.14738,-35.26726 -19.14371,-49.28256 -12.62142,-17.6958 -29.87697,-31.92409 -57.83318,-47.6871 -11.75089,-6.6257 -34.16454,-18.18927 -39.79294,-20.52984 C 90.782378,179.84849 72.692644,171.13484 63.634996,166.08381 50.523251,158.772 39.256898,151.24479 30.165204,143.72216 26.447808,140.64632 18.399407,132.51372 15.654782,129.05993 9.7973583,121.68906 5.988009,114.45166 4.0939009,107.09537 2.9260469,102.55969 2.6608034,100.34323 2.6845927,95.31875 2.7098106,89.992526 3.2289264,86.512963 4.743734,81.516603 5.7939969,78.052473 8.5688549,71.467764 9.0437611,71.312684 9.2445857,71.247106 9.4136845,71.751996 9.5244616,72.747946 11.343342,89.100735 21.458732,103.3716 40.599122,116.5883 c 13.038878,9.00352 27.3388,16.49752 58.225457,30.51357 27.897171,12.65944 43.129511,20.01934 54.371871,26.27119 31.92398,17.75282 51.06423,35.03298 61.90459,55.88857 4.91348,9.45297 7.71709,18.72301 9.183,30.36337 0.52857,4.1972 0.44744,17.397 -0.13578,22.09271 -0.62351,5.02009 -1.8252,11.70304 -2.95741,16.44707 -1.8996,7.95946 -2.2674,8.98396 -2.62046,7.29928 z M 54.374579,116.29468 c -4.692611,-2.75597 -9.547114,-5.73279 -11.90625,-7.30101 -5.77614,-3.83963 -13.758333,-10.14305 -13.758333,-10.864743 0,-0.20093 1.825432,-1.114305 4.299479,-2.15129 13.33635,-5.589872 18.345726,-7.74856 28.244271,-12.171292 13.411565,-5.992372 33.924532,-16.098141 45.243754,-22.289456 33.56135,-18.357183 55.80857,-35.051181 69.72585,-52.3212994 2.58419,-3.206764 6.19911,-8.8653733 7.94335,-12.4341313 2.51447,-5.1446706 3.83232,-9.3839753 4.99666,-16.0734373 0.095,-0.545703 0.29383,-0.992188 0.44188,-0.992188 0.73693,0 4.02611,9.276169 4.9723,14.022917 3.2036,16.0714936 -0.98869,30.67882 -13.14755,45.810436 -18.20713,22.658616 -55.87266,46.516085 -116.331202,73.684554 -4.651946,2.09047 -8.700071,3.7962 -8.995834,3.79052 -0.295762,-0.006 -1.073531,-0.32499 -1.728375,-0.70958 z M 23.364796,91.416146 C 20.000047,86.701442 17.446503,80.73014 16.430535,75.200817 16.080075,73.293465 15.480829,67.2546 15.480829,65.630213 c 0,-0.571772 0.658863,-0.902097 11.773958,-5.902956 C 52.536224,48.352734 65.644393,42.172607 82.552704,33.655871 105.12098,22.288205 120.81729,13.364555 136.26312,3.1204847 156.15536,-10.072557 168.4905,-21.417983 174.3115,-31.875064 c 2.82314,-5.071591 3.70872,-8.156254 3.72337,-12.969207 0.005,-1.78263 0.0952,-3.241146 0.19952,-3.241146 0.27199,0 2.16902,4.959339 3.08682,8.069792 1.46994,4.981632 1.77418,7.356091 1.76291,13.758333 -0.01,5.427787 -0.0603,6.033818 -0.75105,8.97503 -1.00238,4.267975 -2.00189,7.048646 -4.00453,11.1408099 -1.94578,3.9759599 -4.89778,8.5304443 -8.22667,12.6924938 C 167.36265,9.9758369 159.68158,17.752789 155.65346,21.179817 133.42662,40.089865 99.276291,59.414011 45.775621,83.354773 37.19988,87.19229 24.632013,92.672917 24.407772,92.672917 c -0.08033,0 -0.549669,-0.565547 -1.042976,-1.256771 z"
         id="path11" /><path
         style="fill:#6cc58d"
         d="m 201.63212,345.01927 c -0.069,-0.32742 -0.25882,-1.48828 -0.42183,-2.57969 -2.62805,-17.59537 -8.47591,-32.74496 -18.33257,-47.49271 C 172.00981,278.68605 155.85693,263.06563 134.54333,248.20574 119.1761,237.49167 107.92756,230.7732 73.689162,211.85902 51.14799,199.4067 41.487967,193.76949 32.008818,187.53602 21.090547,180.35617 13.790921,174.61149 7.1312584,167.95779 -1.7285328,159.10593 -6.6955055,151.29257 -9.3589025,142.01771 c -1.9709205,-6.86342 -2.0195305,-15.78601 -0.1282872,-23.54792 1.300398,-5.337 5.5920003,-16.00729 6.4381491,-16.00729 0.1373027,0 0.3216422,0.44648 0.4096433,0.99219 1.0325211,6.40276 3.0112093,12.75344 5.5268205,17.73856 7.8394528,15.53524 22.2120198,29.10211 46.1144438,43.52937 11.180036,6.74815 19.213181,10.97882 46.985997,24.74522 28.873936,14.31222 38.511386,19.37505 49.932546,26.23105 24.01679,14.417 39.57648,27.88212 49.93619,43.214 7.52691,11.13947 11.48856,21.46173 13.47433,35.10794 0.66407,4.56348 0.66204,17.37315 -0.004,22.225 -1.28195,9.34526 -2.64465,15.2643 -5.89336,25.59844 -0.6519,2.07367 -1.29579,3.77031 -1.43087,3.77031 -0.13508,0 -0.30206,-0.26789 -0.37106,-0.59531 z m 16.93827,-39.55521 c -0.0839,-0.40018 -0.33941,-2.09682 -0.56788,-3.77031 -2.46689,-18.06935 -9.14738,-35.26726 -19.14371,-49.28256 -12.62142,-17.6958 -29.87697,-31.92409 -57.83318,-47.6871 -11.75089,-6.6257 -34.16454,-18.18927 -39.79294,-20.52984 C 90.782378,179.84849 72.692644,171.13484 63.634996,166.08381 50.523251,158.772 39.256898,151.24479 30.165204,143.72216 26.447808,140.64632 18.399407,132.51372 15.654782,129.05993 9.7973583,121.68906 5.988009,114.45166 4.0939009,107.09537 2.9260469,102.55969 2.6608034,100.34323 2.6845927,95.31875 2.7098106,89.992526 3.2289264,86.512963 4.743734,81.516603 5.7939969,78.052473 8.5688549,71.467764 9.0437611,71.312684 9.2445857,71.247106 9.4136845,71.751996 9.5244616,72.747946 11.343342,89.100735 21.458732,103.3716 40.599122,116.5883 c 13.038878,9.00352 27.3388,16.49752 58.225457,30.51357 27.897171,12.65944 43.129511,20.01934 54.371871,26.27119 31.92398,17.75282 51.06423,35.03298 61.90459,55.88857 4.91348,9.45297 7.71709,18.72301 9.183,30.36337 0.52857,4.1972 0.44744,17.397 -0.13578,22.09271 -0.62351,5.02009 -1.8252,11.70304 -2.95741,16.44707 -1.8996,7.95946 -2.2674,8.98396 -2.62046,7.29928 z M 54.374579,116.03641 c -7.609168,-4.42853 -12.991641,-7.88876 -17.594792,-11.31118 -3.649255,-2.71321 -7.805208,-6.191239 -7.805208,-6.532019 0,-0.297506 -0.540776,-0.05586 11.377083,-5.083974 C 60.240297,84.718265 73.639365,78.570919 90.357912,70.166914 119.91709,55.308237 142.16281,41.323316 159.28187,26.8374 c 3.81621,-3.229226 13.6367,-13.179019 16.3667,-16.582192 7.14326,-8.9046686 11.52538,-17.7316493 13.13514,-26.458333 0.71232,-3.861535 0.74866,-3.99036 1.03896,-3.682264 0.47289,0.501885 2.72869,6.64202 3.57601,9.733614 1.56542,5.7117913 1.85353,7.8982399 1.85228,14.0569833 -9.5e-4,4.7162359 -0.092,6.0104861 -0.60209,8.5607817 -1.80146,9.006297 -6.30866,18.119798 -13.22911,26.749033 -18.24526,22.750371 -56.23389,46.821115 -116.576811,73.866597 -4.501615,2.01761 -8.430678,3.66373 -8.73125,3.65806 -0.300572,-0.006 -1.082276,-0.32215 -1.73712,-0.70327 z M 23.069589,90.600538 C 18.518731,83.817599 16.417724,77.285262 15.863163,68.194708 l -0.177807,-2.914667 1.154507,-0.574147 C 17.954736,64.151459 25.266893,60.84015 33.207912,57.293629 51.097396,49.304044 74.395931,38.18195 88.638121,30.832736 137.81459,5.4568399 166.21863,-15.501202 175.13095,-32.986355 c 2.33928,-4.589456 3.54122,-9.428058 3.15405,-12.697132 -0.35727,-3.016568 0.75003,-0.849011 2.65573,5.19864 2.93003,9.298281 2.84383,19.199791 -0.2451,28.157276 -9.89362,28.690143 -49.52974,56.980339 -131.745009,94.032734 -6.678209,3.009704 -24.280184,10.70317 -24.487914,10.70317 -0.09912,0 -0.726024,-0.813508 -1.393118,-1.807795 z"
         id="path10" /><path
         style="fill:#4c735a"
         d="m 201.62349,343.29948 c -0.73077,-6.01027 -2.68866,-14.37213 -4.93045,-21.05725 -10.27482,-30.63992 -33.85,-56.74781 -74.79751,-82.83311 C 111.17644,232.58061 98.202322,225.05975 77.128746,213.45861 51.262123,199.21888 41.376619,193.44197 30.572082,186.25176 11.558402,173.59852 0.31462984,162.52685 -5.7512797,150.48437 c -6.8552633,-13.60955 -6.4633333,-28.63105 1.1701114,-44.84687 1.410149,-2.9956 1.6000167,-3.06155 1.9043609,-0.66146 0.2665059,2.10169 1.6415549,7.2621 2.690553,10.09735 6.812444,18.4128 22.5474884,34.27752 50.3920834,50.80738 10.989069,6.52363 18.060252,10.22899 45.376042,23.77741 21.966449,10.8952 33.231909,16.68246 41.415379,21.27581 14.49809,8.13772 28.50575,17.53329 37.29816,25.01756 4.27276,3.63706 13.47319,12.93073 16.2329,16.39741 10.33755,12.98578 15.89414,25.47667 18.21735,40.95155 0.77007,5.12937 0.83504,17.26118 0.12147,22.68074 -1.03434,7.85587 -2.4438,14.4307 -4.65097,21.69583 -1.82029,5.99168 -2.21123,7.14375 -2.4241,7.14375 -0.10097,0 -0.26683,-0.68461 -0.36857,-1.52135 z m 16.81452,-40.59933 c -0.85466,-6.66432 -2.85698,-15.4977 -4.93909,-21.78923 -5.74854,-17.37032 -15.0819,-32.0067 -29.04403,-45.54619 C 170.88176,222.20245 154.13121,211.0163 125.81208,196.20257 109.92271,187.89085 105.85762,185.85519 101.33812,183.94681 89.199784,178.82136 73.212762,171.09938 63.238121,165.54392 30.373783,147.23985 11.247172,128.80918 5.0509545,109.47396 1.3660185,97.97516 2.3682034,85.868874 8.0044712,73.795794 9.0108896,71.640012 9.3331716,71.577165 9.3768159,73.52818 c 0.033536,1.499153 1.0896071,6.209403 2.0327861,9.066559 1.73697,5.261774 5.244713,11.540445 9.165563,16.405864 2.598806,3.224877 9.297455,9.751127 13.161914,12.823167 3.43449,2.73023 10.220718,7.43424 15.213542,10.54556 9.676588,6.03005 25.964213,14.19444 50.535416,25.33154 31.274193,14.17528 44.386953,20.60292 58.472913,28.66234 20.77527,11.88677 36.81426,24.85521 47.51045,38.41491 8.87667,11.25309 14.82763,24.13103 17.4308,37.72049 1.18254,6.17329 1.43789,9.30193 1.43464,17.57743 -0.003,8.32426 -0.33986,12.24095 -1.71636,19.97208 -1.00618,5.65122 -3.30755,15.08521 -3.67996,15.08521 -0.10365,0 -0.32888,-1.09493 -0.50051,-2.43318 z M 51.861037,114.54483 c -7.587089,-4.48003 -12.279265,-7.61234 -17.330208,-11.56896 -4.621656,-3.620333 -5.74279,-4.646932 -5.423958,-4.966597 0.14552,-0.145901 2.874451,-1.352263 6.06429,-2.680806 C 82.109078,75.7792 118.33025,56.934336 143.83634,38.793015 c 10.94072,-7.781639 19.64272,-15.167247 26.39394,-22.401191 10.82439,-11.5983466 16.19958,-20.9877322 18.53351,-32.374296 0.3975,-1.939295 0.79983,-3.603097 0.89407,-3.697338 0.39312,-0.393123 3.01812,6.557765 4.12118,10.9127011 1.18085,4.6621174 1.45253,6.9558141 1.4696,12.4077339 0.0173,5.5403966 -0.16373,7.136105 -1.35109,11.90625 -2.97931,11.969276 -11.77271,24.940939 -24.78097,36.555863 -18.17786,16.230817 -42.94838,31.614038 -79.684709,49.486552 -14.116686,6.86789 -32.376217,15.16783 -33.333206,15.15174 -0.293403,-0.005 -2.200336,-0.99322 -4.237628,-2.1962 z M 24.312509,92.207117 c -0.577799,-0.381356 -3.079902,-4.466311 -4.333448,-7.074825 -2.379359,-4.951229 -3.516914,-9.393711 -3.995149,-15.602218 -0.256138,-3.325207 -0.24416,-3.95239 0.0817,-4.278254 0.341373,-0.341373 6.618333,-3.251327 16.877713,-7.824387 16.487881,-7.349379 39.719148,-18.394516 53.18125,-25.284637 36.687885,-18.777448 61.379555,-34.6566374 76.416715,-49.1435 10.56531,-10.178671 15.70465,-19.169884 15.76403,-27.578983 0.01,-1.346068 0.0557,-2.447396 0.10262,-2.447396 0.19755,0 1.37838,2.984192 2.25528,5.699527 8.90856,27.585625 -6.51555,52.509791 -49.69177,80.298078 -22.77457,14.657753 -51.998855,29.545621 -95.911458,48.86064 -5.457032,2.400283 -10.040938,4.41083 -10.186459,4.467882 -0.145521,0.05705 -0.397984,0.01569 -0.561028,-0.09193 z"
         id="path9" /><path
         style="fill:#0aaf47"
         d="m 201.62349,343.29948 c -0.73077,-6.01027 -2.68866,-14.37213 -4.93045,-21.05725 -10.27482,-30.63992 -33.85,-56.74781 -74.79751,-82.83311 C 111.17644,232.58061 98.202322,225.05975 77.128746,213.45861 51.262123,199.21888 41.376619,193.44197 30.572082,186.25176 11.558402,173.59852 0.31462984,162.52685 -5.7512797,150.48437 c -6.8552633,-13.60955 -6.4633333,-28.63105 1.1701114,-44.84687 1.410149,-2.9956 1.6000167,-3.06155 1.9043609,-0.66146 0.2665059,2.10169 1.6415549,7.2621 2.690553,10.09735 6.812444,18.4128 22.5474884,34.27752 50.3920834,50.80738 10.989069,6.52363 18.060252,10.22899 45.376042,23.77741 21.966449,10.8952 33.231909,16.68246 41.415379,21.27581 14.49809,8.13772 28.50575,17.53329 37.29816,25.01756 4.27276,3.63706 13.47319,12.93073 16.2329,16.39741 10.33755,12.98578 15.89414,25.47667 18.21735,40.95155 0.77007,5.12937 0.83504,17.26118 0.12147,22.68074 -1.03434,7.85587 -2.4438,14.4307 -4.65097,21.69583 -1.82029,5.99168 -2.21123,7.14375 -2.4241,7.14375 -0.10097,0 -0.26683,-0.68461 -0.36857,-1.52135 z m 16.81452,-40.59933 c -0.85466,-6.66432 -2.85698,-15.4977 -4.93909,-21.78923 -5.74854,-17.37032 -15.0819,-32.0067 -29.04403,-45.54619 C 170.88176,222.20245 154.13121,211.0163 125.81208,196.20257 109.92271,187.89085 105.85762,185.85519 101.33812,183.94681 89.199784,178.82136 73.212762,171.09938 63.238121,165.54392 30.373783,147.23985 11.247172,128.80918 5.0509545,109.47396 1.3660185,97.97516 2.3682034,85.868874 8.0044712,73.795794 9.0108896,71.640012 9.3331716,71.577165 9.3768159,73.52818 c 0.033536,1.499153 1.0896071,6.209403 2.0327861,9.066559 1.73697,5.261774 5.244713,11.540445 9.165563,16.405864 2.598806,3.224877 9.297455,9.751127 13.161914,12.823167 3.43449,2.73023 10.220718,7.43424 15.213542,10.54556 9.676588,6.03005 25.964213,14.19444 50.535416,25.33154 31.274193,14.17528 44.386953,20.60292 58.472913,28.66234 20.77527,11.88677 36.81426,24.85521 47.51045,38.41491 8.87667,11.25309 14.82763,24.13103 17.4308,37.72049 1.18254,6.17329 1.43789,9.30193 1.43464,17.57743 -0.003,8.32426 -0.33986,12.24095 -1.71636,19.97208 -1.00618,5.65122 -3.30755,15.08521 -3.67996,15.08521 -0.10365,0 -0.32888,-1.09493 -0.50051,-2.43318 z M 53.051662,114.97598 C 41.631461,108.29054 28.679175,98.913959 29.636037,98.024641 29.781558,97.889392 31.984214,96.913878 34.530829,95.856832 81.354246,76.421415 118.59278,57.104636 143.69668,39.229124 164.16086,24.657376 177.609,10.812132 184.43231,-2.709375 c 2.1601,-4.2805961 3.54076,-8.242231 4.59274,-13.178296 l 0.74389,-3.490454 0.6775,1.5088 c 1.85138,4.123059 3.64443,10.600538 4.29175,15.5042302 1.85499,14.0520928 -2.64007,27.8314578 -13.5249,41.4598868 -2.69378,3.372762 -9.57897,10.469298 -13.59704,14.014407 -18.77886,16.568412 -47.39927,33.798168 -87.603129,52.737891 -10.561063,4.97524 -23.328284,10.64127 -23.928408,10.61933 -0.28573,-0.0105 -1.650603,-0.68115 -3.033051,-1.49044 z M 23.608826,90.932559 C 19.083299,84.536296 16.704993,77.329399 16.127717,68.262824 l -0.181242,-2.84655 2.214573,-1.030547 c 1.218015,-0.566801 5.310198,-2.424153 9.093739,-4.127449 C 51.29559,49.435455 61.456062,44.66712 78.848537,36.045201 112.6723,19.277851 137.64675,4.1997312 155.04854,-9.9599207 c 4.72311,-3.8431483 13.27311,-12.4174453 15.89471,-15.9398883 4.94504,-6.644267 7.27335,-12.038192 7.61376,-17.638593 0.0647,-1.064403 0.17417,-1.991806 0.24326,-2.060896 0.22952,-0.229519 2.5366,7.128403 3.08483,9.838373 3.87937,19.17621 -4.27307,37.0267203 -25.34968,55.505386 -21.08319,18.48445 -55.05735,37.971972 -107.187924,61.482826 -4.783305,2.157267 -23.316738,10.306712 -24.283462,10.677823 -0.524665,0.201412 -0.71424,0.07471 -1.455208,-0.972551 z"
         id="path8" /><path
         style="fill:#366246"
         d="M 53.051662,114.97598 C 41.631461,108.29054 28.679175,98.913959 29.636037,98.024641 29.781558,97.889392 31.984214,96.913878 34.530829,95.856832 81.354246,76.421415 118.59278,57.104636 143.69668,39.229124 164.16086,24.657376 177.609,10.812132 184.43231,-2.709375 c 2.1601,-4.2805961 3.54076,-8.242231 4.59274,-13.178296 l 0.74389,-3.490454 0.6775,1.5088 c 1.85138,4.123059 3.64443,10.600538 4.29175,15.5042302 1.85499,14.0520928 -2.64007,27.8314578 -13.5249,41.4598868 -2.69378,3.372762 -9.57897,10.469298 -13.59704,14.014407 -18.77886,16.568412 -47.39927,33.798168 -87.603129,52.737891 -10.561063,4.97524 -23.328284,10.64127 -23.928408,10.61933 -0.28573,-0.0105 -1.650603,-0.68115 -3.033051,-1.49044 z M 23.608826,90.932559 C 19.083299,84.536296 16.704993,77.329399 16.127717,68.262824 l -0.181242,-2.84655 2.214573,-1.030547 c 1.218015,-0.566801 5.310198,-2.424153 9.093739,-4.127449 C 51.29559,49.435455 61.456062,44.66712 78.848537,36.045201 112.6723,19.277851 137.64675,4.1997312 155.04854,-9.9599207 c 4.72311,-3.8431483 13.27311,-12.4174453 15.89471,-15.9398883 4.94504,-6.644267 7.27335,-12.038192 7.61376,-17.638593 0.0647,-1.064403 0.17417,-1.991806 0.24326,-2.060896 0.22952,-0.229519 2.5366,7.128403 3.08483,9.838373 3.87937,19.17621 -4.27307,37.0267203 -25.34968,55.505386 -21.08319,18.48445 -55.05735,37.971972 -107.187924,61.482826 -4.783305,2.157267 -23.316738,10.306712 -24.283462,10.677823 -0.524665,0.201412 -0.71424,0.07471 -1.455208,-0.972551 z"
         id="path7" /><path
         style="fill:#29583a"
         d="m 52.402657,114.34744 c -7.109367,-4.15656 -11.077006,-6.76716 -16.322812,-10.73994 -3.731221,-2.82575 -6.311516,-5.016809 -6.311516,-5.359433 0,-0.108156 1.518047,-0.83078 3.373437,-1.605832 C 51.069699,89.153202 62.262774,84.211876 75.595639,77.900431 136.17834,49.222092 172.83832,21.940449 185.12302,-3.6077167 c 1.66496,-3.4625548 3.19222,-8.0242433 3.97337,-11.8678043 0.33272,-1.637109 0.68303,-2.976562 0.77846,-2.976562 0.38024,0 2.54396,6.16053 3.53125,10.0541663 1.17751,4.6437943 1.53586,8.1109746 1.39459,13.4932149 -0.20292,7.7306118 -1.6347,13.4440398 -5.17079,20.6335668 -5.91699,12.030365 -17.32182,24.358076 -34.31678,37.093702 -18.49011,13.856056 -49.20141,31.029865 -83.079166,46.458003 -2.916298,1.3281 -15.371068,6.90128 -15.882527,7.10702 -0.149661,0.0602 -1.926607,-0.85787 -3.94877,-2.04015 z M 23.047161,89.696354 C 18.769129,83.109216 16.580148,76.068065 16.458054,68.501609 l -0.05118,-3.171946 4.365625,-1.948615 C 77.65191,37.992689 110.83139,20.887783 137.05687,3.4333507 c 11.58837,-7.7126696 18.84995,-13.4112487 26.02705,-20.4249347 6.63683,-6.485708 10.11549,-10.984817 12.87476,-16.651486 1.67884,-3.447784 2.4867,-6.222972 2.73019,-9.378777 l 0.17634,-2.285445 L 179.96716,-42 c 4.21153,12.640006 3.49492,23.860502 -2.27276,35.5864583 C 164.73973,19.923884 125.30487,46.782217 49.215204,81.091188 c -6.58627,2.969761 -24.431797,10.787979 -24.624176,10.787979 -0.06943,0 -0.76417,-0.982266 -1.543867,-2.182813 z"
         id="path6" /></g></g></svg>
